<mxfile host="Electron" modified="2024-02-19T17:01:25.737Z" agent="Mozilla/5.0 (Windows NT 10.0; Win64; x64) AppleWebKit/537.36 (KHTML, like Gecko) draw.io/23.0.2 Chrome/120.0.6099.109 Electron/28.1.0 Safari/537.36" etag="cDcugonGiK_t0sSTNjhz" version="23.0.2" type="device">
  <diagram name="Page-1" id="03018318-947c-dd8e-b7a3-06fadd420f32">
    <mxGraphModel dx="749" dy="554" grid="1" gridSize="10" guides="1" tooltips="1" connect="1" arrows="1" fold="1" page="1" pageScale="1" pageWidth="1100" pageHeight="850" background="none" math="0" shadow="0">
      <root>
        <mxCell id="0" />
        <mxCell id="1" parent="0" />
        <mxCell id="677b7b8949515195-25" value="" style="whiteSpace=wrap;html=1;rounded=0;shadow=0;labelBackgroundColor=none;strokeWidth=1;fillColor=none;fontFamily=Verdana;fontSize=12;align=center;comic=1;" parent="1" vertex="1">
          <mxGeometry x="430" y="222" width="170" height="180" as="geometry" />
        </mxCell>
        <mxCell id="38NdVl5GKKfloUM8Nf8s-15" value="list5" style="text;html=1;points=[];align=left;verticalAlign=top;spacingTop=-4;fontSize=14;fontFamily=Verdana" vertex="1" parent="1">
          <mxGeometry x="440" y="372" width="170" height="20" as="geometry" />
        </mxCell>
        <mxCell id="677b7b8949515195-2" value="LOGO" style="whiteSpace=wrap;html=1;rounded=0;shadow=0;labelBackgroundColor=none;strokeWidth=1;fontFamily=Verdana;fontSize=28;align=center;comic=1;" parent="1" vertex="1">
          <mxGeometry x="30" y="80" width="190" height="50" as="geometry" />
        </mxCell>
        <mxCell id="677b7b8949515195-3" value="Search" style="strokeWidth=1;shadow=0;dashed=0;align=center;html=1;shape=mxgraph.mockup.forms.searchBox;strokeColor=#999999;mainText=;strokeColor2=#008cff;fontColor=#666666;fontSize=17;align=left;spacingLeft=3;rounded=0;labelBackgroundColor=none;comic=1;" parent="1" vertex="1">
          <mxGeometry x="440" y="232" width="150" height="30" as="geometry" />
        </mxCell>
        <mxCell id="677b7b8949515195-8" value="" style="whiteSpace=wrap;html=1;rounded=0;shadow=0;labelBackgroundColor=none;strokeWidth=1;fillColor=none;fontFamily=Verdana;fontSize=12;align=center;comic=1;" parent="1" vertex="1">
          <mxGeometry x="30" y="222" width="380" height="320" as="geometry" />
        </mxCell>
        <mxCell id="677b7b8949515195-9" value="" style="line;strokeWidth=1;html=1;rounded=0;shadow=0;labelBackgroundColor=none;fillColor=none;fontFamily=Verdana;fontSize=14;fontColor=#000000;align=center;comic=1;" parent="1" vertex="1">
          <mxGeometry x="20" y="140" width="580" height="10" as="geometry" />
        </mxCell>
        <mxCell id="677b7b8949515195-10" value="" style="whiteSpace=wrap;html=1;rounded=0;shadow=0;labelBackgroundColor=none;strokeWidth=1;fillColor=none;fontFamily=Verdana;fontSize=12;align=center;comic=1;" parent="1" vertex="1">
          <mxGeometry x="30" y="160" width="570" height="50" as="geometry" />
        </mxCell>
        <mxCell id="677b7b8949515195-11" value="USER:" style="text;html=1;points=[];align=left;verticalAlign=top;spacingTop=-4;fontSize=14;fontFamily=Verdana" parent="1" vertex="1">
          <mxGeometry x="40" y="175" width="60" height="20" as="geometry" />
        </mxCell>
        <mxCell id="677b7b8949515195-12" value="Username" style="text;html=1;points=[];align=left;verticalAlign=top;spacingTop=-4;fontSize=14;fontFamily=Verdana" parent="1" vertex="1">
          <mxGeometry x="253" y="175" width="60" height="20" as="geometry" />
        </mxCell>
        <mxCell id="677b7b8949515195-13" value="Password" style="text;html=1;points=[];align=left;verticalAlign=top;spacingTop=-4;fontSize=14;fontFamily=Verdana" parent="1" vertex="1">
          <mxGeometry x="399" y="175" width="60" height="20" as="geometry" />
        </mxCell>
        <mxCell id="677b7b8949515195-27" value="Movie Name (contains):" style="text;html=1;points=[];align=left;verticalAlign=top;spacingTop=-4;fontSize=14;fontFamily=Verdana" parent="1" vertex="1">
          <mxGeometry x="40" y="242" width="170" height="20" as="geometry" />
        </mxCell>
        <mxCell id="677b7b8949515195-28" value="Genre:&amp;nbsp;" style="text;html=1;points=[];align=left;verticalAlign=top;spacingTop=-4;fontSize=14;fontFamily=Verdana" parent="1" vertex="1">
          <mxGeometry x="40" y="278" width="170" height="20" as="geometry" />
        </mxCell>
        <mxCell id="677b7b8949515195-29" value="Year" style="text;html=1;points=[];align=left;verticalAlign=top;spacingTop=-4;fontSize=14;fontFamily=Verdana" parent="1" vertex="1">
          <mxGeometry x="40" y="313" width="170" height="20" as="geometry" />
        </mxCell>
        <mxCell id="38NdVl5GKKfloUM8Nf8s-2" value="genre" style="rounded=1;fillColor=#F1F2F4;strokeColor=none;html=1;whiteSpace=wrap;fontColor=#596780;align=left;fontSize=12;spacingLeft=10;sketch=0;" vertex="1" parent="1">
          <mxGeometry x="260" y="278" width="140" height="20" as="geometry" />
        </mxCell>
        <mxCell id="38NdVl5GKKfloUM8Nf8s-3" value="" style="shape=triangle;direction=south;fillColor=#596780;strokeColor=none;html=1;sketch=0;" vertex="1" parent="38NdVl5GKKfloUM8Nf8s-2">
          <mxGeometry x="1" y="0.5" width="12" height="6" relative="1" as="geometry">
            <mxPoint x="-20" y="-3" as="offset" />
          </mxGeometry>
        </mxCell>
        <mxCell id="38NdVl5GKKfloUM8Nf8s-5" value="min" style="rounded=1;fillColor=#F1F2F4;strokeColor=none;html=1;whiteSpace=wrap;fontColor=#596780;align=left;fontSize=12;spacingLeft=10;sketch=0;" vertex="1" parent="1">
          <mxGeometry x="260" y="313" width="60" height="20" as="geometry" />
        </mxCell>
        <mxCell id="38NdVl5GKKfloUM8Nf8s-6" value="" style="shape=triangle;direction=south;fillColor=#596780;strokeColor=none;html=1;sketch=0;" vertex="1" parent="38NdVl5GKKfloUM8Nf8s-5">
          <mxGeometry x="1" y="0.5" width="12" height="6" relative="1" as="geometry">
            <mxPoint x="-20" y="-3" as="offset" />
          </mxGeometry>
        </mxCell>
        <mxCell id="38NdVl5GKKfloUM8Nf8s-7" value="max" style="rounded=1;fillColor=#F1F2F4;strokeColor=none;html=1;whiteSpace=wrap;fontColor=#596780;align=left;fontSize=12;spacingLeft=10;sketch=0;" vertex="1" parent="1">
          <mxGeometry x="340" y="313" width="60" height="20" as="geometry" />
        </mxCell>
        <mxCell id="38NdVl5GKKfloUM8Nf8s-8" value="" style="shape=triangle;direction=south;fillColor=#596780;strokeColor=none;html=1;sketch=0;" vertex="1" parent="38NdVl5GKKfloUM8Nf8s-7">
          <mxGeometry x="1" y="0.5" width="12" height="6" relative="1" as="geometry">
            <mxPoint x="-20" y="-3" as="offset" />
          </mxGeometry>
        </mxCell>
        <mxCell id="38NdVl5GKKfloUM8Nf8s-9" value="" style="html=1;verticalLabelPosition=bottom;labelBackgroundColor=#ffffff;verticalAlign=top;shadow=0;dashed=0;strokeWidth=2;shape=mxgraph.ios7.misc.scroll_(vertical);fillColor=#a0a0a0;" vertex="1" parent="1">
          <mxGeometry x="590" y="272" width="6" height="120" as="geometry" />
        </mxCell>
        <mxCell id="38NdVl5GKKfloUM8Nf8s-12" value="list2" style="text;html=1;points=[];align=left;verticalAlign=top;spacingTop=-4;fontSize=14;fontFamily=Verdana" vertex="1" parent="1">
          <mxGeometry x="440" y="267" width="170" height="20" as="geometry" />
        </mxCell>
        <mxCell id="38NdVl5GKKfloUM8Nf8s-13" value="list3" style="text;html=1;points=[];align=left;verticalAlign=top;spacingTop=-4;fontSize=14;fontFamily=Verdana" vertex="1" parent="1">
          <mxGeometry x="440" y="302" width="170" height="20" as="geometry" />
        </mxCell>
        <mxCell id="38NdVl5GKKfloUM8Nf8s-14" value="list4" style="text;html=1;points=[];align=left;verticalAlign=top;spacingTop=-4;fontSize=14;fontFamily=Verdana" vertex="1" parent="1">
          <mxGeometry x="440" y="337" width="170" height="20" as="geometry" />
        </mxCell>
        <mxCell id="38NdVl5GKKfloUM8Nf8s-43" value="Select All" style="rounded=1;fillColor=#F0F2F5;strokeColor=#D8DCE3;align=left;verticalAlign=middle;fontStyle=0;fontSize=12;labelPosition=right;verticalLabelPosition=middle;spacingLeft=10;html=1;shadow=0;dashed=0" vertex="1" parent="1">
          <mxGeometry x="165" y="356" width="12" height="12" as="geometry" />
        </mxCell>
        <mxCell id="38NdVl5GKKfloUM8Nf8s-47" value="&lt;font color=&quot;#000000&quot;&gt;Search&lt;/font&gt;" style="labelPosition=center;verticalLabelPosition=middle;align=center;html=1;shape=mxgraph.basic.shaded_button;dx=3.76;fillColor=#E6E6E6;strokeColor=none;whiteSpace=wrap;" vertex="1" parent="1">
          <mxGeometry x="40" y="352" width="100" height="20" as="geometry" />
        </mxCell>
        <mxCell id="38NdVl5GKKfloUM8Nf8s-48" value="&lt;font color=&quot;#000000&quot;&gt;Login&lt;/font&gt;" style="labelPosition=center;verticalLabelPosition=middle;align=center;html=1;shape=mxgraph.basic.shaded_button;dx=3.76;fillColor=#E6E6E6;strokeColor=none;whiteSpace=wrap;" vertex="1" parent="1">
          <mxGeometry x="540" y="175" width="50" height="20" as="geometry" />
        </mxCell>
        <mxCell id="38NdVl5GKKfloUM8Nf8s-60" value="" style="line;strokeWidth=1;html=1;rounded=0;shadow=0;labelBackgroundColor=none;fillColor=none;fontFamily=Verdana;fontSize=14;fontColor=#000000;align=center;comic=1;rotation=90;" vertex="1" parent="1">
          <mxGeometry x="255" y="378" width="330" height="10" as="geometry" />
        </mxCell>
        <mxCell id="38NdVl5GKKfloUM8Nf8s-17" value="Text" style="rounded=1;fillColor=#F0F2F5;strokeColor=#D8DCE3;align=left;verticalAlign=middle;fontStyle=0;fontSize=12;labelPosition=right;verticalLabelPosition=middle;spacingLeft=10;html=1;shadow=0;dashed=0" vertex="1" parent="1">
          <mxGeometry x="45" y="415" width="12" height="12" as="geometry" />
        </mxCell>
        <mxCell id="38NdVl5GKKfloUM8Nf8s-18" value="Text" style="rounded=1;fillColor=#F0F2F5;strokeColor=#D8DCE3;align=left;verticalAlign=middle;fontStyle=0;fontSize=12;labelPosition=right;verticalLabelPosition=middle;spacingLeft=10;html=1;shadow=0;dashed=0" vertex="1" parent="1">
          <mxGeometry x="45" y="389" width="12" height="12" as="geometry" />
        </mxCell>
        <mxCell id="38NdVl5GKKfloUM8Nf8s-26" value="Text" style="rounded=1;fillColor=#F0F2F5;strokeColor=#D8DCE3;align=left;verticalAlign=middle;fontStyle=0;fontSize=12;labelPosition=right;verticalLabelPosition=middle;spacingLeft=10;html=1;shadow=0;dashed=0" vertex="1" parent="1">
          <mxGeometry x="45" y="468" width="12" height="12" as="geometry" />
        </mxCell>
        <mxCell id="38NdVl5GKKfloUM8Nf8s-27" value="Text" style="rounded=1;fillColor=#F0F2F5;strokeColor=#D8DCE3;align=left;verticalAlign=middle;fontStyle=0;fontSize=12;labelPosition=right;verticalLabelPosition=middle;spacingLeft=10;html=1;shadow=0;dashed=0" vertex="1" parent="1">
          <mxGeometry x="45" y="442" width="12" height="12" as="geometry" />
        </mxCell>
        <mxCell id="38NdVl5GKKfloUM8Nf8s-28" value="Text" style="rounded=1;fillColor=#F0F2F5;strokeColor=#D8DCE3;align=left;verticalAlign=middle;fontStyle=0;fontSize=12;labelPosition=right;verticalLabelPosition=middle;spacingLeft=10;html=1;shadow=0;dashed=0" vertex="1" parent="1">
          <mxGeometry x="165" y="414" width="12" height="12" as="geometry" />
        </mxCell>
        <mxCell id="38NdVl5GKKfloUM8Nf8s-29" value="Text" style="rounded=1;fillColor=#F0F2F5;strokeColor=#D8DCE3;align=left;verticalAlign=middle;fontStyle=0;fontSize=12;labelPosition=right;verticalLabelPosition=middle;spacingLeft=10;html=1;shadow=0;dashed=0" vertex="1" parent="1">
          <mxGeometry x="165" y="388" width="12" height="12" as="geometry" />
        </mxCell>
        <mxCell id="38NdVl5GKKfloUM8Nf8s-30" value="Text" style="rounded=1;fillColor=#F0F2F5;strokeColor=#D8DCE3;align=left;verticalAlign=middle;fontStyle=0;fontSize=12;labelPosition=right;verticalLabelPosition=middle;spacingLeft=10;html=1;shadow=0;dashed=0" vertex="1" parent="1">
          <mxGeometry x="165" y="467" width="12" height="12" as="geometry" />
        </mxCell>
        <mxCell id="38NdVl5GKKfloUM8Nf8s-31" value="Text" style="rounded=1;fillColor=#F0F2F5;strokeColor=#D8DCE3;align=left;verticalAlign=middle;fontStyle=0;fontSize=12;labelPosition=right;verticalLabelPosition=middle;spacingLeft=10;html=1;shadow=0;dashed=0" vertex="1" parent="1">
          <mxGeometry x="165" y="441" width="12" height="12" as="geometry" />
        </mxCell>
        <mxCell id="38NdVl5GKKfloUM8Nf8s-32" value="Text" style="rounded=1;fillColor=#F0F2F5;strokeColor=#D8DCE3;align=left;verticalAlign=middle;fontStyle=0;fontSize=12;labelPosition=right;verticalLabelPosition=middle;spacingLeft=10;html=1;shadow=0;dashed=0" vertex="1" parent="1">
          <mxGeometry x="45" y="518" width="12" height="12" as="geometry" />
        </mxCell>
        <mxCell id="38NdVl5GKKfloUM8Nf8s-33" value="Text" style="rounded=1;fillColor=#F0F2F5;strokeColor=#D8DCE3;align=left;verticalAlign=middle;fontStyle=0;fontSize=12;labelPosition=right;verticalLabelPosition=middle;spacingLeft=10;html=1;shadow=0;dashed=0" vertex="1" parent="1">
          <mxGeometry x="45" y="492" width="12" height="12" as="geometry" />
        </mxCell>
        <mxCell id="38NdVl5GKKfloUM8Nf8s-34" value="Text" style="rounded=1;fillColor=#F0F2F5;strokeColor=#D8DCE3;align=left;verticalAlign=middle;fontStyle=0;fontSize=12;labelPosition=right;verticalLabelPosition=middle;spacingLeft=10;html=1;shadow=0;dashed=0" vertex="1" parent="1">
          <mxGeometry x="165" y="517" width="12" height="12" as="geometry" />
        </mxCell>
        <mxCell id="38NdVl5GKKfloUM8Nf8s-35" value="Text" style="rounded=1;fillColor=#F0F2F5;strokeColor=#D8DCE3;align=left;verticalAlign=middle;fontStyle=0;fontSize=12;labelPosition=right;verticalLabelPosition=middle;spacingLeft=10;html=1;shadow=0;dashed=0" vertex="1" parent="1">
          <mxGeometry x="165" y="491" width="12" height="12" as="geometry" />
        </mxCell>
        <mxCell id="38NdVl5GKKfloUM8Nf8s-36" value="Text" style="rounded=1;fillColor=#F0F2F5;strokeColor=#D8DCE3;align=left;verticalAlign=middle;fontStyle=0;fontSize=12;labelPosition=right;verticalLabelPosition=middle;spacingLeft=10;html=1;shadow=0;dashed=0" vertex="1" parent="1">
          <mxGeometry x="295" y="414" width="12" height="12" as="geometry" />
        </mxCell>
        <mxCell id="38NdVl5GKKfloUM8Nf8s-37" value="Text" style="rounded=1;fillColor=#F0F2F5;strokeColor=#D8DCE3;align=left;verticalAlign=middle;fontStyle=0;fontSize=12;labelPosition=right;verticalLabelPosition=middle;spacingLeft=10;html=1;shadow=0;dashed=0" vertex="1" parent="1">
          <mxGeometry x="295" y="388" width="12" height="12" as="geometry" />
        </mxCell>
        <mxCell id="38NdVl5GKKfloUM8Nf8s-38" value="Text" style="rounded=1;fillColor=#F0F2F5;strokeColor=#D8DCE3;align=left;verticalAlign=middle;fontStyle=0;fontSize=12;labelPosition=right;verticalLabelPosition=middle;spacingLeft=10;html=1;shadow=0;dashed=0" vertex="1" parent="1">
          <mxGeometry x="295" y="467" width="12" height="12" as="geometry" />
        </mxCell>
        <mxCell id="38NdVl5GKKfloUM8Nf8s-39" value="Text" style="rounded=1;fillColor=#F0F2F5;strokeColor=#D8DCE3;align=left;verticalAlign=middle;fontStyle=0;fontSize=12;labelPosition=right;verticalLabelPosition=middle;spacingLeft=10;html=1;shadow=0;dashed=0" vertex="1" parent="1">
          <mxGeometry x="295" y="441" width="12" height="12" as="geometry" />
        </mxCell>
        <mxCell id="38NdVl5GKKfloUM8Nf8s-40" value="Text" style="rounded=1;fillColor=#F0F2F5;strokeColor=#D8DCE3;align=left;verticalAlign=middle;fontStyle=0;fontSize=12;labelPosition=right;verticalLabelPosition=middle;spacingLeft=10;html=1;shadow=0;dashed=0" vertex="1" parent="1">
          <mxGeometry x="295" y="517" width="12" height="12" as="geometry" />
        </mxCell>
        <mxCell id="38NdVl5GKKfloUM8Nf8s-41" value="Text" style="rounded=1;fillColor=#F0F2F5;strokeColor=#D8DCE3;align=left;verticalAlign=middle;fontStyle=0;fontSize=12;labelPosition=right;verticalLabelPosition=middle;spacingLeft=10;html=1;shadow=0;dashed=0" vertex="1" parent="1">
          <mxGeometry x="295" y="491" width="12" height="12" as="geometry" />
        </mxCell>
        <mxCell id="38NdVl5GKKfloUM8Nf8s-61" value="Add to List" style="rounded=1;fillColor=#F0F2F5;strokeColor=#D8DCE3;align=left;verticalAlign=middle;fontStyle=0;fontSize=12;labelPosition=right;verticalLabelPosition=middle;spacingLeft=10;html=1;shadow=0;dashed=0" vertex="1" parent="1">
          <mxGeometry x="284" y="356" width="12" height="12" as="geometry" />
        </mxCell>
        <mxCell id="38NdVl5GKKfloUM8Nf8s-65" value="" style="group" vertex="1" connectable="0" parent="1">
          <mxGeometry x="430" y="416" width="180" height="104" as="geometry" />
        </mxCell>
        <mxCell id="38NdVl5GKKfloUM8Nf8s-50" value="" style="whiteSpace=wrap;html=1;rounded=0;shadow=0;labelBackgroundColor=none;strokeWidth=1;fillColor=none;fontFamily=Verdana;fontSize=12;align=center;comic=1;" vertex="1" parent="38NdVl5GKKfloUM8Nf8s-65">
          <mxGeometry width="170" height="104" as="geometry" />
        </mxCell>
        <mxCell id="38NdVl5GKKfloUM8Nf8s-51" value="" style="html=1;verticalLabelPosition=bottom;labelBackgroundColor=#ffffff;verticalAlign=top;shadow=0;dashed=0;strokeWidth=2;shape=mxgraph.ios7.misc.scroll_(vertical);fillColor=#a0a0a0;" vertex="1" parent="38NdVl5GKKfloUM8Nf8s-65">
          <mxGeometry x="160" y="3.3015873015873014" width="6" height="99.04761904761904" as="geometry" />
        </mxCell>
        <mxCell id="38NdVl5GKKfloUM8Nf8s-52" value="&lt;font style=&quot;font-size: 7px;&quot;&gt;This is my movie #1&lt;/font&gt;" style="text;html=1;points=[];align=left;verticalAlign=top;spacingTop=-4;fontSize=14;fontFamily=Verdana" vertex="1" parent="38NdVl5GKKfloUM8Nf8s-65">
          <mxGeometry x="10" width="170" height="16.507936507936506" as="geometry" />
        </mxCell>
        <mxCell id="38NdVl5GKKfloUM8Nf8s-54" value="&lt;font style=&quot;font-size: 7px;&quot;&gt;This is my movie #1&lt;/font&gt;" style="text;html=1;points=[];align=left;verticalAlign=top;spacingTop=-4;fontSize=14;fontFamily=Verdana" vertex="1" parent="38NdVl5GKKfloUM8Nf8s-65">
          <mxGeometry x="10" y="9.079365079365079" width="170" height="16.507936507936506" as="geometry" />
        </mxCell>
        <mxCell id="38NdVl5GKKfloUM8Nf8s-55" value="&lt;font style=&quot;font-size: 7px;&quot;&gt;This is my movie #1&lt;/font&gt;" style="text;html=1;points=[];align=left;verticalAlign=top;spacingTop=-4;fontSize=14;fontFamily=Verdana" vertex="1" parent="38NdVl5GKKfloUM8Nf8s-65">
          <mxGeometry x="10" y="18.158730158730158" width="170" height="16.507936507936506" as="geometry" />
        </mxCell>
        <mxCell id="38NdVl5GKKfloUM8Nf8s-56" value="&lt;font style=&quot;font-size: 7px;&quot;&gt;This is my movie #1&lt;/font&gt;" style="text;html=1;points=[];align=left;verticalAlign=top;spacingTop=-4;fontSize=14;fontFamily=Verdana" vertex="1" parent="38NdVl5GKKfloUM8Nf8s-65">
          <mxGeometry x="10" y="26.41269841269841" width="170" height="16.507936507936506" as="geometry" />
        </mxCell>
        <mxCell id="38NdVl5GKKfloUM8Nf8s-57" value="&lt;font style=&quot;font-size: 7px;&quot;&gt;This is my movie #1&lt;/font&gt;" style="text;html=1;points=[];align=left;verticalAlign=top;spacingTop=-4;fontSize=14;fontFamily=Verdana" vertex="1" parent="38NdVl5GKKfloUM8Nf8s-65">
          <mxGeometry x="10" y="35.49206349206349" width="170" height="16.507936507936506" as="geometry" />
        </mxCell>
        <mxCell id="38NdVl5GKKfloUM8Nf8s-58" value="&lt;font style=&quot;font-size: 7px;&quot;&gt;This is my movie #1&lt;/font&gt;" style="text;html=1;points=[];align=left;verticalAlign=top;spacingTop=-4;fontSize=14;fontFamily=Verdana" vertex="1" parent="38NdVl5GKKfloUM8Nf8s-65">
          <mxGeometry x="10" y="44.57142857142857" width="170" height="16.507936507936506" as="geometry" />
        </mxCell>
        <mxCell id="38NdVl5GKKfloUM8Nf8s-59" value="&lt;font style=&quot;font-size: 7px;&quot;&gt;This is my movie #1&lt;/font&gt;" style="text;html=1;points=[];align=left;verticalAlign=top;spacingTop=-4;fontSize=14;fontFamily=Verdana" vertex="1" parent="38NdVl5GKKfloUM8Nf8s-65">
          <mxGeometry x="10" y="53.650793650793645" width="170" height="16.507936507936506" as="geometry" />
        </mxCell>
        <mxCell id="38NdVl5GKKfloUM8Nf8s-66" value="Remove from list" style="rounded=1;fillColor=#F0F2F5;strokeColor=#D8DCE3;align=left;verticalAlign=middle;fontStyle=0;fontSize=12;labelPosition=right;verticalLabelPosition=middle;spacingLeft=10;html=1;shadow=0;dashed=0" vertex="1" parent="1">
          <mxGeometry x="440" y="530" width="12" height="12" as="geometry" />
        </mxCell>
      </root>
    </mxGraphModel>
  </diagram>
</mxfile>
